<mxfile host="app.diagrams.net" modified="2022-06-14T10:47:14.057Z" agent="5.0 (Macintosh; Intel Mac OS X 10_15_7) AppleWebKit/537.36 (KHTML, like Gecko) Chrome/102.0.5005.115 Safari/537.36" etag="ur6L1Tgxe3JT4SJiZzfT" version="20.0.1" type="github">
  <diagram id="4XlqYOp4uJdNFiC0nDDZ" name="Page-1">
    <mxGraphModel dx="1251" dy="683" grid="1" gridSize="10" guides="1" tooltips="1" connect="1" arrows="1" fold="1" page="1" pageScale="1" pageWidth="1169" pageHeight="827" math="0" shadow="0">
      <root>
        <mxCell id="0" />
        <mxCell id="1" parent="0" />
        <mxCell id="b45XmpOlP40o_1RV09xQ-13" value="" style="rounded=0;whiteSpace=wrap;html=1;dashed=1;sketch=0;strokeColor=#FF9933;strokeWidth=1;fillColor=none;" parent="1" vertex="1">
          <mxGeometry x="550" y="110" width="610" height="190" as="geometry" />
        </mxCell>
        <mxCell id="b45XmpOlP40o_1RV09xQ-2" value="" style="rounded=0;whiteSpace=wrap;html=1;dashed=1;sketch=0;strokeColor=#FF9933;strokeWidth=1;fillColor=none;" parent="1" vertex="1">
          <mxGeometry x="559" y="312" width="600" height="378" as="geometry" />
        </mxCell>
        <mxCell id="Zrawaq7GhmSFqBXnnMpm-133" value="" style="rounded=0;whiteSpace=wrap;html=1;dashed=1;sketch=0;strokeColor=#FF9933;strokeWidth=1;fillColor=none;" parent="1" vertex="1">
          <mxGeometry x="572" y="330" width="158" height="330" as="geometry" />
        </mxCell>
        <mxCell id="Zrawaq7GhmSFqBXnnMpm-4" value="Api Gateway" style="text;html=1;align=left;verticalAlign=middle;resizable=0;points=[];autosize=1;strokeColor=default;fillColor=none;" parent="1" vertex="1">
          <mxGeometry x="610" y="135" width="80" height="20" as="geometry" />
        </mxCell>
        <mxCell id="Zrawaq7GhmSFqBXnnMpm-5" value="CloudTrail" style="text;html=1;align=left;verticalAlign=middle;resizable=0;points=[];autosize=1;strokeColor=default;fillColor=none;" parent="1" vertex="1">
          <mxGeometry x="610" y="165" width="70" height="20" as="geometry" />
        </mxCell>
        <mxCell id="Zrawaq7GhmSFqBXnnMpm-6" value="EventBridge" style="text;html=1;align=left;verticalAlign=middle;resizable=0;points=[];autosize=1;strokeColor=default;fillColor=none;" parent="1" vertex="1">
          <mxGeometry x="610" y="195" width="80" height="20" as="geometry" />
        </mxCell>
        <mxCell id="Zrawaq7GhmSFqBXnnMpm-7" value="EC2" style="text;html=1;align=left;verticalAlign=middle;resizable=0;points=[];autosize=1;strokeColor=default;fillColor=none;" parent="1" vertex="1">
          <mxGeometry x="610" y="222" width="40" height="20" as="geometry" />
        </mxCell>
        <mxCell id="Zrawaq7GhmSFqBXnnMpm-8" value="S3 Batch" style="text;html=1;align=left;verticalAlign=middle;resizable=0;points=[];autosize=1;strokeColor=default;fillColor=none;" parent="1" vertex="1">
          <mxGeometry x="610" y="248" width="60" height="20" as="geometry" />
        </mxCell>
        <mxCell id="Zrawaq7GhmSFqBXnnMpm-9" value="CloudWach" style="text;html=1;align=left;verticalAlign=middle;resizable=0;points=[];autosize=1;strokeColor=default;fillColor=none;" parent="1" vertex="1">
          <mxGeometry x="728" y="135" width="80" height="20" as="geometry" />
        </mxCell>
        <mxCell id="Zrawaq7GhmSFqBXnnMpm-10" value="CloudFormation" style="text;html=1;align=left;verticalAlign=middle;resizable=0;points=[];autosize=1;strokeColor=default;fillColor=none;" parent="1" vertex="1">
          <mxGeometry x="728" y="165" width="100" height="20" as="geometry" />
        </mxCell>
        <mxCell id="Zrawaq7GhmSFqBXnnMpm-11" value="CloudFront(Lambda@Edge)" style="text;html=1;align=left;verticalAlign=middle;resizable=0;points=[];autosize=1;strokeColor=default;fillColor=none;" parent="1" vertex="1">
          <mxGeometry x="980" y="248" width="170" height="20" as="geometry" />
        </mxCell>
        <mxCell id="Zrawaq7GhmSFqBXnnMpm-12" value="ECache" style="text;html=1;align=left;verticalAlign=middle;resizable=0;points=[];autosize=1;strokeColor=default;fillColor=none;" parent="1" vertex="1">
          <mxGeometry x="728" y="222" width="60" height="20" as="geometry" />
        </mxCell>
        <mxCell id="Zrawaq7GhmSFqBXnnMpm-13" value="S3 Object Lambda" style="text;html=1;align=left;verticalAlign=middle;resizable=0;points=[];autosize=1;strokeColor=default;fillColor=none;" parent="1" vertex="1">
          <mxGeometry x="728" y="248" width="110" height="20" as="geometry" />
        </mxCell>
        <mxCell id="Zrawaq7GhmSFqBXnnMpm-14" value="CodeCommit" style="text;html=1;align=left;verticalAlign=middle;resizable=0;points=[];autosize=1;strokeColor=default;fillColor=none;" parent="1" vertex="1">
          <mxGeometry x="875" y="165" width="90" height="20" as="geometry" />
        </mxCell>
        <mxCell id="Zrawaq7GhmSFqBXnnMpm-15" value="CodePipeline" style="text;html=1;align=left;verticalAlign=middle;resizable=0;points=[];autosize=1;strokeColor=default;fillColor=none;" parent="1" vertex="1">
          <mxGeometry x="875" y="135" width="90" height="20" as="geometry" />
        </mxCell>
        <mxCell id="Zrawaq7GhmSFqBXnnMpm-16" value="Cognito" style="text;html=1;align=left;verticalAlign=middle;resizable=0;points=[];autosize=1;strokeColor=default;fillColor=none;" parent="1" vertex="1">
          <mxGeometry x="875" y="195" width="60" height="20" as="geometry" />
        </mxCell>
        <mxCell id="Zrawaq7GhmSFqBXnnMpm-17" value="Config" style="text;html=1;align=left;verticalAlign=middle;resizable=0;points=[];autosize=1;strokeColor=default;fillColor=none;" parent="1" vertex="1">
          <mxGeometry x="981" y="135" width="50" height="20" as="geometry" />
        </mxCell>
        <mxCell id="Zrawaq7GhmSFqBXnnMpm-18" value="Connect" style="text;html=1;align=left;verticalAlign=middle;resizable=0;points=[];autosize=1;strokeColor=default;fillColor=none;" parent="1" vertex="1">
          <mxGeometry x="981" y="165" width="60" height="20" as="geometry" />
        </mxCell>
        <mxCell id="Zrawaq7GhmSFqBXnnMpm-19" value="DynamoDB" style="text;html=1;align=left;verticalAlign=middle;resizable=0;points=[];autosize=1;strokeColor=default;fillColor=none;" parent="1" vertex="1">
          <mxGeometry x="981" y="195" width="80" height="20" as="geometry" />
        </mxCell>
        <mxCell id="Zrawaq7GhmSFqBXnnMpm-20" value="Secrets Manager" style="text;html=1;align=left;verticalAlign=middle;resizable=0;points=[];autosize=1;strokeColor=default;fillColor=none;" parent="1" vertex="1">
          <mxGeometry x="727" y="195" width="110" height="20" as="geometry" />
        </mxCell>
        <mxCell id="Zrawaq7GhmSFqBXnnMpm-21" value="RDS" style="text;html=1;align=left;verticalAlign=middle;resizable=0;points=[];autosize=1;strokeColor=default;fillColor=none;" parent="1" vertex="1">
          <mxGeometry x="809" y="275" width="40" height="20" as="geometry" />
        </mxCell>
        <mxCell id="Zrawaq7GhmSFqBXnnMpm-23" value="ELB" style="text;html=1;align=left;verticalAlign=middle;resizable=0;points=[];autosize=1;strokeColor=default;fillColor=none;" parent="1" vertex="1">
          <mxGeometry x="875" y="222" width="40" height="20" as="geometry" />
        </mxCell>
        <mxCell id="Zrawaq7GhmSFqBXnnMpm-24" value="MQ" style="text;html=1;align=left;verticalAlign=middle;resizable=0;points=[];autosize=1;strokeColor=default;fillColor=none;" parent="1" vertex="1">
          <mxGeometry x="774" y="275" width="30" height="20" as="geometry" />
        </mxCell>
        <mxCell id="Zrawaq7GhmSFqBXnnMpm-26" value="S3" style="text;html=1;align=left;verticalAlign=middle;resizable=0;points=[];autosize=1;strokeColor=default;fillColor=none;" parent="1" vertex="1">
          <mxGeometry x="610" y="275" width="30" height="20" as="geometry" />
        </mxCell>
        <mxCell id="Zrawaq7GhmSFqBXnnMpm-27" value="SQS" style="text;html=1;align=left;verticalAlign=middle;resizable=0;points=[];autosize=1;strokeColor=default;fillColor=none;" parent="1" vertex="1">
          <mxGeometry x="981" y="221" width="40" height="20" as="geometry" />
        </mxCell>
        <mxCell id="Zrawaq7GhmSFqBXnnMpm-28" value="SNS" style="text;html=1;align=left;verticalAlign=middle;resizable=0;points=[];autosize=1;strokeColor=default;fillColor=none;" parent="1" vertex="1">
          <mxGeometry x="1028" y="221" width="40" height="20" as="geometry" />
        </mxCell>
        <mxCell id="Zrawaq7GhmSFqBXnnMpm-29" value="MSK" style="text;html=1;align=left;verticalAlign=middle;resizable=0;points=[];autosize=1;strokeColor=default;fillColor=none;" parent="1" vertex="1">
          <mxGeometry x="728" y="275" width="40" height="20" as="geometry" />
        </mxCell>
        <mxCell id="Zrawaq7GhmSFqBXnnMpm-30" value="X_Ray" style="text;html=1;align=left;verticalAlign=middle;resizable=0;points=[];autosize=1;strokeColor=default;fillColor=none;" parent="1" vertex="1">
          <mxGeometry x="875" y="248" width="50" height="20" as="geometry" />
        </mxCell>
        <mxCell id="Zrawaq7GhmSFqBXnnMpm-84" value="" style="sketch=0;points=[[0,0,0],[0.25,0,0],[0.5,0,0],[0.75,0,0],[1,0,0],[0,1,0],[0.25,1,0],[0.5,1,0],[0.75,1,0],[1,1,0],[0,0.25,0],[0,0.5,0],[0,0.75,0],[1,0.25,0],[1,0.5,0],[1,0.75,0]];outlineConnect=0;fontColor=#232F3E;gradientColor=#F78E04;gradientDirection=north;fillColor=#D05C17;strokeColor=#ffffff;dashed=0;verticalLabelPosition=bottom;verticalAlign=top;align=center;html=1;fontSize=12;fontStyle=0;aspect=fixed;shape=mxgraph.aws4.resourceIcon;resIcon=mxgraph.aws4.lambda;rounded=0;" parent="1" vertex="1">
          <mxGeometry x="470" y="19" width="50" height="50" as="geometry" />
        </mxCell>
        <mxCell id="Zrawaq7GhmSFqBXnnMpm-118" value="" style="group" parent="1" vertex="1" connectable="0">
          <mxGeometry x="11" y="117" width="580" height="442" as="geometry" />
        </mxCell>
        <mxCell id="b45XmpOlP40o_1RV09xQ-12" value="" style="rounded=0;whiteSpace=wrap;html=1;dashed=1;sketch=0;strokeColor=#FF9933;strokeWidth=1;fillColor=none;" parent="Zrawaq7GhmSFqBXnnMpm-118" vertex="1">
          <mxGeometry x="-1" y="-7" width="521" height="307" as="geometry" />
        </mxCell>
        <mxCell id="Zrawaq7GhmSFqBXnnMpm-101" value="" style="ellipse;whiteSpace=wrap;html=1;rounded=0;sketch=0;strokeColor=#FF9933;strokeWidth=1;fillColor=none;dashed=1;" parent="Zrawaq7GhmSFqBXnnMpm-118" vertex="1">
          <mxGeometry x="148" y="42.5" width="185" height="41.5" as="geometry" />
        </mxCell>
        <mxCell id="Zrawaq7GhmSFqBXnnMpm-103" value="" style="ellipse;whiteSpace=wrap;html=1;rounded=0;sketch=0;strokeColor=#FF9933;strokeWidth=1;fillColor=none;dashed=1;" parent="Zrawaq7GhmSFqBXnnMpm-118" vertex="1">
          <mxGeometry x="277" y="87" width="200" height="35" as="geometry" />
        </mxCell>
        <mxCell id="Zrawaq7GhmSFqBXnnMpm-87" value="(2) &lt;b&gt;Create code for λ Function&lt;/b&gt;" style="text;html=1;align=left;verticalAlign=middle;resizable=0;points=[];autosize=1;strokeColor=none;fillColor=none;" parent="Zrawaq7GhmSFqBXnnMpm-118" vertex="1">
          <mxGeometry x="151" y="54" width="190" height="20" as="geometry" />
        </mxCell>
        <mxCell id="Zrawaq7GhmSFqBXnnMpm-89" value="(4) &lt;b&gt;λ invoke the function when event occurs&lt;/b&gt;" style="text;html=1;align=left;verticalAlign=middle;resizable=0;points=[];autosize=1;strokeColor=none;fillColor=none;" parent="Zrawaq7GhmSFqBXnnMpm-118" vertex="1">
          <mxGeometry x="229" y="159" width="260" height="20" as="geometry" />
        </mxCell>
        <mxCell id="Zrawaq7GhmSFqBXnnMpm-111" value="(5)" style="text;html=1;align=center;verticalAlign=middle;resizable=0;points=[];autosize=1;strokeColor=none;fillColor=none;" parent="Zrawaq7GhmSFqBXnnMpm-118" vertex="1">
          <mxGeometry x="191" y="219" width="30" height="20" as="geometry" />
        </mxCell>
        <mxCell id="Zrawaq7GhmSFqBXnnMpm-110" value="" style="curved=1;endArrow=classic;html=1;rounded=1;sketch=0;exitX=0.98;exitY=0.244;exitDx=0;exitDy=0;exitPerimeter=0;" parent="Zrawaq7GhmSFqBXnnMpm-118" source="Zrawaq7GhmSFqBXnnMpm-101" target="Zrawaq7GhmSFqBXnnMpm-103" edge="1">
          <mxGeometry width="50" height="50" relative="1" as="geometry">
            <mxPoint x="313.1199999999999" y="50.82000000000005" as="sourcePoint" />
            <mxPoint x="452" y="17" as="targetPoint" />
            <Array as="points">
              <mxPoint x="402" y="67" />
              <mxPoint x="368" />
            </Array>
          </mxGeometry>
        </mxCell>
        <mxCell id="Zrawaq7GhmSFqBXnnMpm-88" value="(3) &lt;b&gt;Upload the λ function code&lt;/b&gt;" style="text;html=1;align=left;verticalAlign=middle;resizable=0;points=[];autosize=1;strokeColor=none;fillColor=none;" parent="Zrawaq7GhmSFqBXnnMpm-118" vertex="1">
          <mxGeometry x="286" y="95" width="190" height="20" as="geometry" />
        </mxCell>
        <mxCell id="Zrawaq7GhmSFqBXnnMpm-100" value="" style="ellipse;whiteSpace=wrap;html=1;rounded=0;sketch=0;strokeColor=#FF9933;strokeWidth=1;fillColor=none;dashed=1;" parent="Zrawaq7GhmSFqBXnnMpm-118" vertex="1">
          <mxGeometry x="16" y="105" width="160" height="35" as="geometry" />
        </mxCell>
        <mxCell id="Zrawaq7GhmSFqBXnnMpm-104" value="" style="ellipse;whiteSpace=wrap;html=1;rounded=0;sketch=0;strokeColor=#FF9933;strokeWidth=1;fillColor=none;dashed=1;" parent="Zrawaq7GhmSFqBXnnMpm-118" vertex="1">
          <mxGeometry x="219" y="151.5" width="286" height="37.5" as="geometry" />
        </mxCell>
        <mxCell id="Zrawaq7GhmSFqBXnnMpm-107" value="" style="group;strokeColor=#FF9933;dashed=1;" parent="Zrawaq7GhmSFqBXnnMpm-118" vertex="1" connectable="0">
          <mxGeometry x="192" y="217" width="276" height="74" as="geometry" />
        </mxCell>
        <mxCell id="Zrawaq7GhmSFqBXnnMpm-99" value="Cloud&#xa;Run" style="sketch=0;html=1;verticalAlign=top;labelPosition=center;verticalLabelPosition=bottom;align=center;spacingTop=-6;fontSize=11;fontStyle=1;fontColor=#999999;shape=image;aspect=fixed;imageAspect=0;image=data:image/svg+xml,PHN2ZyB4bWxucz0iaHR0cDovL3d3dy53My5vcmcvMjAwMC9zdmciIHhtbG5zOnY9Imh0dHBzOi8vdmVjdGEuaW8vbmFubyIgd2lkdGg9IjM2NS40NjQ5OTY3NzA0MjQ5MyIgaGVpZ2h0PSIzNzkuMjIyOTk0NDYzNTc3OTUiIHZpZXdCb3g9IjAgMCA5Ni42OTU5OTkxNDU1MDc4MSAxMDAuMzM1OTk4NTM1MTU2MjUiPiYjeGE7PHN0eWxlIHR5cGU9InRleHQvY3NzIj4mI3hhOwkuc3Qwe2ZpbGw6IzQyODVmNDt9JiN4YTsJLnN0MXtmaWxsOiNhZWNiZmE7fSYjeGE7PC9zdHlsZT4mI3hhOwk8cGF0aCBjbGFzcz0ic3QwIiBkPSJNMjkuNzk0IDEwMC4zMzZMNDYuOTIgNTAuMTY4aDQ5Ljc3NnpNMCA5OS42NzFsMTIuOTc2LTQ5LjUwMkgyOS4yMkwxNi44OTcgOTIuMDU0eiIvPiYjeGE7CTxwYXRoIGNsYXNzPSJzdDEiIGQ9Ik0yOS43OTQgMEw0Ni45MiA1MC4xNjhoNDkuNzc2ek0wIC42NjZsMTIuOTc2IDQ5LjUwMkgyOS4yMkwxNi44OTcgOC4yODN6Ii8+JiN4YTs8L3N2Zz4=;rounded=0;strokeColor=default;strokeWidth=0;fillColor=#FFFFFF;" parent="Zrawaq7GhmSFqBXnnMpm-107" vertex="1">
          <mxGeometry x="78" y="23" width="18" height="18" as="geometry" />
        </mxCell>
        <mxCell id="Zrawaq7GhmSFqBXnnMpm-91" value="Lambda" style="text;html=1;align=center;verticalAlign=middle;resizable=0;points=[];autosize=1;strokeColor=none;fillColor=none;" parent="Zrawaq7GhmSFqBXnnMpm-107" vertex="1">
          <mxGeometry y="24" width="60" height="20" as="geometry" />
        </mxCell>
        <mxCell id="Zrawaq7GhmSFqBXnnMpm-92" value="instance - 1 of my&amp;nbsp;&lt;span style=&quot;text-align: left;&quot;&gt;λ function&lt;/span&gt;" style="text;html=1;align=center;verticalAlign=middle;resizable=0;points=[];autosize=1;strokeColor=none;fillColor=none;" parent="Zrawaq7GhmSFqBXnnMpm-107" vertex="1">
          <mxGeometry x="106" width="170" height="20" as="geometry" />
        </mxCell>
        <mxCell id="Zrawaq7GhmSFqBXnnMpm-93" value="instance - n of my&amp;nbsp;&lt;span style=&quot;text-align: left;&quot;&gt;λ function&lt;/span&gt;" style="text;html=1;align=center;verticalAlign=middle;resizable=0;points=[];autosize=1;strokeColor=none;fillColor=none;" parent="Zrawaq7GhmSFqBXnnMpm-107" vertex="1">
          <mxGeometry x="106" y="54" width="170" height="20" as="geometry" />
        </mxCell>
        <mxCell id="Zrawaq7GhmSFqBXnnMpm-95" value="" style="shape=waypoint;sketch=0;size=6;pointerEvents=1;points=[];fillColor=none;resizable=0;rotatable=0;perimeter=centerPerimeter;snapToPoint=1;rounded=0;strokeColor=default;strokeWidth=0;" parent="Zrawaq7GhmSFqBXnnMpm-107" vertex="1">
          <mxGeometry x="119" y="14" width="40" height="40" as="geometry" />
        </mxCell>
        <mxCell id="Zrawaq7GhmSFqBXnnMpm-96" value="" style="shape=waypoint;sketch=0;size=6;pointerEvents=1;points=[];fillColor=none;resizable=0;rotatable=0;perimeter=centerPerimeter;snapToPoint=1;rounded=0;strokeColor=default;strokeWidth=0;" parent="Zrawaq7GhmSFqBXnnMpm-107" vertex="1">
          <mxGeometry x="119" y="25" width="40" height="40" as="geometry" />
        </mxCell>
        <mxCell id="Zrawaq7GhmSFqBXnnMpm-94" value="" style="shape=waypoint;sketch=0;size=6;pointerEvents=1;points=[];fillColor=none;resizable=0;rotatable=0;perimeter=centerPerimeter;snapToPoint=1;rounded=0;strokeColor=default;strokeWidth=0;" parent="Zrawaq7GhmSFqBXnnMpm-107" vertex="1">
          <mxGeometry x="119" y="4" width="40" height="40" as="geometry" />
        </mxCell>
        <mxCell id="Zrawaq7GhmSFqBXnnMpm-108" value="" style="curved=1;endArrow=classic;html=1;rounded=1;sketch=0;" parent="Zrawaq7GhmSFqBXnnMpm-118" edge="1">
          <mxGeometry width="50" height="50" relative="1" as="geometry">
            <mxPoint x="59" y="103" as="sourcePoint" />
            <mxPoint x="146.29108358910798" y="65.53349954440876" as="targetPoint" />
            <Array as="points">
              <mxPoint x="105" y="103" />
              <mxPoint x="55" y="53" />
            </Array>
          </mxGeometry>
        </mxCell>
        <mxCell id="Zrawaq7GhmSFqBXnnMpm-113" value="" style="curved=1;endArrow=classic;html=1;rounded=1;sketch=0;entryX=0.971;entryY=-0.059;entryDx=0;entryDy=0;entryPerimeter=0;" parent="Zrawaq7GhmSFqBXnnMpm-118" target="Zrawaq7GhmSFqBXnnMpm-92" edge="1">
          <mxGeometry width="50" height="50" relative="1" as="geometry">
            <mxPoint x="505" y="169" as="sourcePoint" />
            <mxPoint x="558" y="219" as="targetPoint" />
            <Array as="points">
              <mxPoint x="521" y="183" />
              <mxPoint x="508" y="209" />
            </Array>
          </mxGeometry>
        </mxCell>
        <mxCell id="Zrawaq7GhmSFqBXnnMpm-114" value="" style="curved=1;endArrow=classic;html=1;rounded=1;sketch=0;exitX=1;exitY=0.191;exitDx=0;exitDy=0;exitPerimeter=0;" parent="Zrawaq7GhmSFqBXnnMpm-118" source="Zrawaq7GhmSFqBXnnMpm-88" edge="1">
          <mxGeometry width="50" height="50" relative="1" as="geometry">
            <mxPoint x="530" y="101" as="sourcePoint" />
            <mxPoint x="460" y="152" as="targetPoint" />
            <Array as="points">
              <mxPoint x="533" y="141" />
            </Array>
          </mxGeometry>
        </mxCell>
        <mxCell id="Zrawaq7GhmSFqBXnnMpm-86" value="(1) &lt;b&gt;Configure λ Function&lt;/b&gt;" style="text;html=1;align=left;verticalAlign=middle;resizable=0;points=[];autosize=1;strokeColor=none;fillColor=none;" parent="Zrawaq7GhmSFqBXnnMpm-118" vertex="1">
          <mxGeometry x="24" y="112" width="150" height="20" as="geometry" />
        </mxCell>
        <mxCell id="JW2wYCluZi6iuJ0aH2-L-1" value="" style="endArrow=none;html=1;rounded=0;" edge="1" parent="Zrawaq7GhmSFqBXnnMpm-118">
          <mxGeometry width="50" height="50" relative="1" as="geometry">
            <mxPoint x="159" y="323" as="sourcePoint" />
            <mxPoint x="529" y="323" as="targetPoint" />
          </mxGeometry>
        </mxCell>
        <mxCell id="JW2wYCluZi6iuJ0aH2-L-5" value="&lt;b&gt;Invoking&amp;nbsp;&lt;span style=&quot;text-align: left;&quot;&gt;λ functions&lt;/span&gt;&lt;/b&gt;" style="ellipse;whiteSpace=wrap;html=1;dashed=1;strokeColor=#FF9933;fillColor=none;" vertex="1" parent="Zrawaq7GhmSFqBXnnMpm-118">
          <mxGeometry x="109" y="383" width="100" height="52" as="geometry" />
        </mxCell>
        <mxCell id="JW2wYCluZi6iuJ0aH2-L-10" value="Function URL" style="text;html=1;align=center;verticalAlign=middle;resizable=0;points=[];autosize=1;strokeColor=none;fillColor=none;" vertex="1" parent="Zrawaq7GhmSFqBXnnMpm-118">
          <mxGeometry x="1" y="358" width="90" height="20" as="geometry" />
        </mxCell>
        <mxCell id="JW2wYCluZi6iuJ0aH2-L-8" value="&lt;span style=&quot;text-align: left;&quot;&gt;λ Api&lt;/span&gt;" style="text;html=1;align=center;verticalAlign=middle;resizable=0;points=[];autosize=1;strokeColor=none;fillColor=none;" vertex="1" parent="Zrawaq7GhmSFqBXnnMpm-118">
          <mxGeometry x="259" y="403" width="40" height="20" as="geometry" />
        </mxCell>
        <mxCell id="JW2wYCluZi6iuJ0aH2-L-7" value="&lt;span style=&quot;text-align: left;&quot;&gt;λ console&lt;/span&gt;" style="text;html=1;align=center;verticalAlign=middle;resizable=0;points=[];autosize=1;strokeColor=none;fillColor=none;" vertex="1" parent="Zrawaq7GhmSFqBXnnMpm-118">
          <mxGeometry x="244" y="353" width="70" height="20" as="geometry" />
        </mxCell>
        <mxCell id="JW2wYCluZi6iuJ0aH2-L-14" value="" style="endArrow=classic;html=1;rounded=0;" edge="1" parent="Zrawaq7GhmSFqBXnnMpm-118">
          <mxGeometry width="50" height="50" relative="1" as="geometry">
            <mxPoint x="91" y="371" as="sourcePoint" />
            <mxPoint x="109" y="391" as="targetPoint" />
          </mxGeometry>
        </mxCell>
        <mxCell id="JW2wYCluZi6iuJ0aH2-L-15" value="" style="endArrow=classic;html=1;rounded=0;" edge="1" parent="Zrawaq7GhmSFqBXnnMpm-118">
          <mxGeometry width="50" height="50" relative="1" as="geometry">
            <mxPoint x="248.58823529411757" y="367" as="sourcePoint" />
            <mxPoint x="202" y="391" as="targetPoint" />
          </mxGeometry>
        </mxCell>
        <mxCell id="JW2wYCluZi6iuJ0aH2-L-16" value="" style="endArrow=classic;html=1;rounded=0;" edge="1" parent="Zrawaq7GhmSFqBXnnMpm-118">
          <mxGeometry width="50" height="50" relative="1" as="geometry">
            <mxPoint x="220" y="470" as="sourcePoint" />
            <mxPoint x="198" y="430" as="targetPoint" />
          </mxGeometry>
        </mxCell>
        <mxCell id="JW2wYCluZi6iuJ0aH2-L-17" value="" style="endArrow=classic;html=1;rounded=0;entryX=1;entryY=0.5;entryDx=0;entryDy=0;" edge="1" parent="Zrawaq7GhmSFqBXnnMpm-118" source="JW2wYCluZi6iuJ0aH2-L-8">
          <mxGeometry width="50" height="50" relative="1" as="geometry">
            <mxPoint x="269" y="393" as="sourcePoint" />
            <mxPoint x="212" y="409" as="targetPoint" />
          </mxGeometry>
        </mxCell>
        <mxCell id="Zrawaq7GhmSFqBXnnMpm-122" value="" style="endArrow=classic;html=1;rounded=1;sketch=0;curved=0;" parent="1" edge="1">
          <mxGeometry width="50" height="50" relative="1" as="geometry">
            <mxPoint x="733" y="425" as="sourcePoint" />
            <mxPoint x="806" y="425" as="targetPoint" />
          </mxGeometry>
        </mxCell>
        <mxCell id="Zrawaq7GhmSFqBXnnMpm-123" value="invoke" style="text;html=1;align=center;verticalAlign=middle;resizable=0;points=[];autosize=1;strokeColor=none;fillColor=none;" parent="1" vertex="1">
          <mxGeometry x="743" y="427" width="50" height="20" as="geometry" />
        </mxCell>
        <mxCell id="Zrawaq7GhmSFqBXnnMpm-125" value="Amazon S3" style="sketch=0;outlineConnect=0;fontColor=#232F3E;gradientColor=none;strokeColor=#ffffff;fillColor=#232F3E;dashed=0;verticalLabelPosition=middle;verticalAlign=bottom;align=center;html=1;whiteSpace=wrap;fontSize=10;fontStyle=1;spacing=3;shape=mxgraph.aws4.productIcon;prIcon=mxgraph.aws4.s3;rounded=0;" parent="1" vertex="1">
          <mxGeometry x="600" y="337" width="40" height="70" as="geometry" />
        </mxCell>
        <mxCell id="Zrawaq7GhmSFqBXnnMpm-126" value="Amazon SNS" style="sketch=0;outlineConnect=0;fontColor=#232F3E;gradientColor=none;strokeColor=#ffffff;fillColor=#232F3E;dashed=0;verticalLabelPosition=middle;verticalAlign=bottom;align=center;html=1;whiteSpace=wrap;fontSize=10;fontStyle=1;spacing=3;shape=mxgraph.aws4.productIcon;prIcon=mxgraph.aws4.sns;rounded=0;" parent="1" vertex="1">
          <mxGeometry x="600" y="416" width="40" height="70" as="geometry" />
        </mxCell>
        <mxCell id="Zrawaq7GhmSFqBXnnMpm-127" value="AWS CloudFormation" style="sketch=0;outlineConnect=0;fontColor=#232F3E;gradientColor=none;strokeColor=#ffffff;fillColor=#232F3E;dashed=0;verticalLabelPosition=middle;verticalAlign=bottom;align=center;html=1;whiteSpace=wrap;fontSize=10;fontStyle=1;spacing=3;shape=mxgraph.aws4.productIcon;prIcon=mxgraph.aws4.cloudformation;rounded=0;" parent="1" vertex="1">
          <mxGeometry x="600" y="499" width="40" height="70" as="geometry" />
        </mxCell>
        <mxCell id="Zrawaq7GhmSFqBXnnMpm-128" value="Amazon CloudWatch" style="sketch=0;outlineConnect=0;fontColor=#232F3E;gradientColor=none;strokeColor=#ffffff;fillColor=#232F3E;dashed=0;verticalLabelPosition=middle;verticalAlign=bottom;align=center;html=1;whiteSpace=wrap;fontSize=10;fontStyle=1;spacing=3;shape=mxgraph.aws4.productIcon;prIcon=mxgraph.aws4.cloudwatch;rounded=0;" parent="1" vertex="1">
          <mxGeometry x="670" y="337" width="40" height="70" as="geometry" />
        </mxCell>
        <mxCell id="Zrawaq7GhmSFqBXnnMpm-129" value="AWS CodeCommit" style="sketch=0;outlineConnect=0;fontColor=#232F3E;gradientColor=none;strokeColor=#ffffff;fillColor=#232F3E;dashed=0;verticalLabelPosition=middle;verticalAlign=bottom;align=center;html=1;whiteSpace=wrap;fontSize=10;fontStyle=1;spacing=3;shape=mxgraph.aws4.productIcon;prIcon=mxgraph.aws4.codecommit;rounded=0;" parent="1" vertex="1">
          <mxGeometry x="670" y="416" width="40" height="70" as="geometry" />
        </mxCell>
        <mxCell id="Zrawaq7GhmSFqBXnnMpm-130" value="AWS Config" style="sketch=0;outlineConnect=0;fontColor=#232F3E;gradientColor=none;strokeColor=#ffffff;fillColor=#232F3E;dashed=0;verticalLabelPosition=middle;verticalAlign=bottom;align=center;html=1;whiteSpace=wrap;fontSize=10;fontStyle=1;spacing=3;shape=mxgraph.aws4.productIcon;prIcon=mxgraph.aws4.config;rounded=0;" parent="1" vertex="1">
          <mxGeometry x="670" y="499" width="40" height="70" as="geometry" />
        </mxCell>
        <mxCell id="Zrawaq7GhmSFqBXnnMpm-134" value="" style="outlineConnect=0;dashed=0;verticalLabelPosition=bottom;verticalAlign=top;align=center;html=1;shape=mxgraph.aws3.lambda_function;fillColor=#F58534;gradientColor=none;rounded=0;sketch=0;strokeColor=#FF9933;strokeWidth=1;aspect=fixed;" parent="1" vertex="1">
          <mxGeometry x="809" y="408" width="39" height="40.75" as="geometry" />
        </mxCell>
        <mxCell id="Zrawaq7GhmSFqBXnnMpm-139" value="&lt;font style=&quot;font-size: 10px;&quot;&gt;&lt;b&gt;Amazon&lt;br&gt;EventBridge&lt;/b&gt;&lt;/font&gt;" style="sketch=0;points=[[0,0,0],[0.25,0,0],[0.5,0,0],[0.75,0,0],[1,0,0],[0,1,0],[0.25,1,0],[0.5,1,0],[0.75,1,0],[1,1,0],[0,0.25,0],[0,0.5,0],[0,0.75,0],[1,0.25,0],[1,0.5,0],[1,0.75,0]];outlineConnect=0;fontColor=#232F3E;gradientColor=#FF4F8B;gradientDirection=north;fillColor=#BC1356;strokeColor=#ffffff;dashed=0;verticalLabelPosition=bottom;verticalAlign=top;align=center;html=1;fontSize=12;fontStyle=0;shape=mxgraph.aws4.resourceIcon;resIcon=mxgraph.aws4.eventbridge;rounded=0;" parent="1" vertex="1">
          <mxGeometry x="601" y="571" width="39" height="44" as="geometry" />
        </mxCell>
        <mxCell id="Zrawaq7GhmSFqBXnnMpm-141" value="Amazon DynamoDB" style="sketch=0;outlineConnect=0;fontColor=#232F3E;gradientColor=none;strokeColor=#ffffff;fillColor=#232F3E;dashed=0;verticalLabelPosition=middle;verticalAlign=bottom;align=center;html=1;whiteSpace=wrap;fontSize=10;fontStyle=1;spacing=3;shape=mxgraph.aws4.productIcon;prIcon=mxgraph.aws4.dynamodb;rounded=0;" parent="1" vertex="1">
          <mxGeometry x="670" y="571" width="40" height="70" as="geometry" />
        </mxCell>
        <mxCell id="Zrawaq7GhmSFqBXnnMpm-144" value="" style="endArrow=classic;html=1;rounded=1;sketch=0;curved=0;entryX=0;entryY=0.25;entryDx=0;entryDy=0;" parent="1" target="Zrawaq7GhmSFqBXnnMpm-143" edge="1">
          <mxGeometry width="50" height="50" relative="1" as="geometry">
            <mxPoint x="960" y="420" as="sourcePoint" />
            <mxPoint x="936.5" y="425" as="targetPoint" />
          </mxGeometry>
        </mxCell>
        <mxCell id="Zrawaq7GhmSFqBXnnMpm-145" value="" style="endArrow=classic;html=1;rounded=1;sketch=0;curved=0;entryX=-0.031;entryY=0.647;entryDx=0;entryDy=0;entryPerimeter=0;fontColor=#000033;strokeColor=#FF3333;" parent="1" target="Zrawaq7GhmSFqBXnnMpm-143" edge="1">
          <mxGeometry width="50" height="50" relative="1" as="geometry">
            <mxPoint x="960" y="460" as="sourcePoint" />
            <mxPoint x="940" y="490" as="targetPoint" />
          </mxGeometry>
        </mxCell>
        <mxCell id="Zrawaq7GhmSFqBXnnMpm-147" value="&lt;div style=&quot;text-align: left; font-size: 12px;&quot;&gt;&lt;span style=&quot;background-color: initial; font-size: 12px;&quot;&gt;&lt;font style=&quot;font-size: 12px;&quot;&gt;i.e:&amp;nbsp; DynamoDB Streams invoke Lambda Function&lt;/font&gt;&lt;/span&gt;&lt;/div&gt;&lt;div style=&quot;text-align: left; font-size: 12px;&quot;&gt;&lt;font style=&quot;font-size: 12px;&quot;&gt;&lt;span style=&quot;background-color: initial; font-size: 12px;&quot;&gt;asynchronously. The function could&amp;nbsp;&lt;/span&gt;&lt;span style=&quot;background-color: initial; font-size: 12px;&quot;&gt;store its&amp;nbsp;&lt;/span&gt;&lt;/font&gt;&lt;/div&gt;&lt;div style=&quot;text-align: left; font-size: 12px;&quot;&gt;&lt;span style=&quot;background-color: initial; font-size: 12px;&quot;&gt;&lt;font style=&quot;font-size: 12px;&quot;&gt;results, after processing, on S3&lt;/font&gt;&lt;/span&gt;&lt;/div&gt;" style="text;html=1;align=center;verticalAlign=middle;resizable=0;points=[];autosize=1;strokeColor=none;fillColor=none;fontSize=12;fontColor=#000033;" parent="1" vertex="1">
          <mxGeometry x="862" y="600" width="280" height="50" as="geometry" />
        </mxCell>
        <mxCell id="TZZ2lZZYc0FRnr4Le-b7-3" value="" style="group" parent="1" vertex="1" connectable="0">
          <mxGeometry x="859.5" y="403" width="91" height="96" as="geometry" />
        </mxCell>
        <mxCell id="TZZ2lZZYc0FRnr4Le-b7-4" value="&lt;font style=&quot;font-size: 11px;&quot;&gt;&lt;br&gt;&lt;br&gt;&lt;br&gt;DestinationConfig&lt;br&gt;JSON/YAML&lt;/font&gt;" style="shape=note;whiteSpace=wrap;html=1;backgroundOutline=1;darkOpacity=0.05;fontColor=#000033;fillColor=none;" parent="TZZ2lZZYc0FRnr4Le-b7-3" vertex="1">
          <mxGeometry width="91" height="76.03960396039604" as="geometry" />
        </mxCell>
        <mxCell id="b45XmpOlP40o_1RV09xQ-1" value="" style="group" parent="1" vertex="1" connectable="0">
          <mxGeometry x="1012" y="320" width="130" height="270" as="geometry" />
        </mxCell>
        <mxCell id="Zrawaq7GhmSFqBXnnMpm-143" value="" style="rounded=0;whiteSpace=wrap;html=1;dashed=1;sketch=0;strokeColor=#FF9933;strokeWidth=1;fillColor=none;" parent="b45XmpOlP40o_1RV09xQ-1" vertex="1">
          <mxGeometry width="130" height="270" as="geometry" />
        </mxCell>
        <mxCell id="Zrawaq7GhmSFqBXnnMpm-135" value="AWS Lambda" style="sketch=0;outlineConnect=0;fontColor=#232F3E;gradientColor=none;strokeColor=#ffffff;fillColor=#232F3E;dashed=0;verticalLabelPosition=middle;verticalAlign=bottom;align=center;html=1;whiteSpace=wrap;fontSize=10;fontStyle=1;spacing=3;shape=mxgraph.aws4.productIcon;prIcon=mxgraph.aws4.lambda;rounded=0;" parent="b45XmpOlP40o_1RV09xQ-1" vertex="1">
          <mxGeometry x="18" y="16" width="40" height="70" as="geometry" />
        </mxCell>
        <mxCell id="Zrawaq7GhmSFqBXnnMpm-136" value="&lt;font color=&quot;#000033&quot;&gt;Amazon SNS&lt;/font&gt;" style="sketch=0;outlineConnect=0;fontColor=#232F3E;gradientColor=none;strokeColor=#ffffff;fillColor=#232F3E;dashed=0;verticalLabelPosition=middle;verticalAlign=bottom;align=center;html=1;whiteSpace=wrap;fontSize=10;fontStyle=1;spacing=3;shape=mxgraph.aws4.productIcon;prIcon=mxgraph.aws4.sns;rounded=0;" parent="b45XmpOlP40o_1RV09xQ-1" vertex="1">
          <mxGeometry x="20" y="94" width="40" height="70" as="geometry" />
        </mxCell>
        <mxCell id="Zrawaq7GhmSFqBXnnMpm-138" value="&lt;font style=&quot;font-size: 10px;&quot;&gt;&lt;b&gt;Amazon&lt;br&gt;EventBridge&lt;/b&gt;&lt;/font&gt;" style="sketch=0;points=[[0,0,0],[0.25,0,0],[0.5,0,0],[0.75,0,0],[1,0,0],[0,1,0],[0.25,1,0],[0.5,1,0],[0.75,1,0],[1,1,0],[0,0.25,0],[0,0.5,0],[0,0.75,0],[1,0.25,0],[1,0.5,0],[1,0.75,0]];outlineConnect=0;fontColor=#232F3E;gradientColor=#FF4F8B;gradientDirection=north;fillColor=#BC1356;strokeColor=#ffffff;dashed=0;verticalLabelPosition=bottom;verticalAlign=top;align=center;html=1;fontSize=12;fontStyle=0;shape=mxgraph.aws4.resourceIcon;resIcon=mxgraph.aws4.eventbridge;rounded=0;" parent="b45XmpOlP40o_1RV09xQ-1" vertex="1">
          <mxGeometry x="20" y="169" width="39" height="44" as="geometry" />
        </mxCell>
        <mxCell id="Zrawaq7GhmSFqBXnnMpm-140" value="Amazon SQS" style="sketch=0;outlineConnect=0;fontColor=#232F3E;gradientColor=none;strokeColor=#ffffff;fillColor=#232F3E;dashed=0;verticalLabelPosition=middle;verticalAlign=bottom;align=center;html=1;whiteSpace=wrap;fontSize=10;fontStyle=1;spacing=3;shape=mxgraph.aws4.productIcon;prIcon=mxgraph.aws4.sqs;rounded=0;" parent="b45XmpOlP40o_1RV09xQ-1" vertex="1">
          <mxGeometry x="71" y="16" width="40" height="70" as="geometry" />
        </mxCell>
        <mxCell id="Zrawaq7GhmSFqBXnnMpm-142" value="Amazon S3" style="sketch=0;outlineConnect=0;fontColor=#232F3E;gradientColor=none;strokeColor=#ffffff;fillColor=#232F3E;dashed=0;verticalLabelPosition=middle;verticalAlign=bottom;align=center;html=1;whiteSpace=wrap;fontSize=10;fontStyle=1;spacing=3;shape=mxgraph.aws4.productIcon;prIcon=mxgraph.aws4.s3;rounded=0;" parent="b45XmpOlP40o_1RV09xQ-1" vertex="1">
          <mxGeometry x="71" y="94" width="40" height="70" as="geometry" />
        </mxCell>
        <mxCell id="b45XmpOlP40o_1RV09xQ-4" value="&lt;b&gt;&lt;br class=&quot;Apple-interchange-newline&quot;&gt;&lt;span style=&quot;color: rgb(0, 0, 51); font-size: 12px; text-align: left;&quot;&gt;Asynchronous scenario&lt;/span&gt;&lt;/b&gt;" style="text;html=1;align=center;verticalAlign=middle;resizable=0;points=[];autosize=1;strokeColor=none;fillColor=none;fontSize=11;" parent="1" vertex="1">
          <mxGeometry x="1008" y="651" width="150" height="30" as="geometry" />
        </mxCell>
        <mxCell id="Zrawaq7GhmSFqBXnnMpm-85" value="Foundations" style="text;html=1;align=center;verticalAlign=middle;resizable=0;points=[];autosize=1;strokeColor=default;fillColor=default;" parent="1" vertex="1">
          <mxGeometry x="187" y="97" width="80" height="20" as="geometry" />
        </mxCell>
        <mxCell id="Zrawaq7GhmSFqBXnnMpm-3" value="Working with other services&amp;nbsp;" style="text;html=1;align=center;verticalAlign=middle;resizable=0;points=[];autosize=1;strokeColor=default;fillColor=#FFFFFF;" parent="1" vertex="1">
          <mxGeometry x="727" y="97" width="170" height="20" as="geometry" />
        </mxCell>
        <mxCell id="b45XmpOlP40o_1RV09xQ-14" value="" style="shape=partialRectangle;whiteSpace=wrap;html=1;bottom=1;right=1;left=1;top=0;fillColor=none;routingCenterX=-0.5;rotation=-180;direction=east;" parent="1" vertex="1">
          <mxGeometry x="225" y="82" width="590" height="15" as="geometry" />
        </mxCell>
        <mxCell id="b45XmpOlP40o_1RV09xQ-15" value="" style="line;strokeWidth=2;direction=south;html=1;" parent="1" vertex="1">
          <mxGeometry x="493" y="70" width="1" height="11" as="geometry" />
        </mxCell>
        <mxCell id="rxK0f2ipfS20jKCTAAPW-1" value="error(onFailure)" style="text;html=1;align=center;verticalAlign=middle;resizable=0;points=[];autosize=1;strokeColor=none;fillColor=none;rotation=0;fontSize=10;fontColor=#FF3333;" parent="1" vertex="1">
          <mxGeometry x="916" y="499" width="80" height="20" as="geometry" />
        </mxCell>
        <mxCell id="rxK0f2ipfS20jKCTAAPW-2" value="ok(onSucess)" style="text;html=1;align=center;verticalAlign=middle;resizable=0;points=[];autosize=1;strokeColor=none;fillColor=none;fontSize=10;" parent="1" vertex="1">
          <mxGeometry x="925" y="381" width="80" height="20" as="geometry" />
        </mxCell>
        <mxCell id="b45XmpOlP40o_1RV09xQ-5" value="Amazon Kinesis" style="sketch=0;outlineConnect=0;fontColor=#232F3E;gradientColor=none;strokeColor=#ffffff;fillColor=#232F3E;dashed=0;verticalLabelPosition=middle;verticalAlign=bottom;align=center;html=1;whiteSpace=wrap;fontSize=10;fontStyle=1;spacing=3;shape=mxgraph.aws4.productIcon;prIcon=mxgraph.aws4.kinesis;" parent="1" vertex="1">
          <mxGeometry x="562" y="709" width="40" height="70" as="geometry" />
        </mxCell>
        <mxCell id="b45XmpOlP40o_1RV09xQ-9" value="invoke" style="text;html=1;align=center;verticalAlign=middle;resizable=0;points=[];autosize=1;strokeColor=none;fillColor=none;" parent="1" vertex="1">
          <mxGeometry x="620" y="700" width="50" height="20" as="geometry" />
        </mxCell>
        <mxCell id="b45XmpOlP40o_1RV09xQ-6" value="" style="outlineConnect=0;dashed=0;verticalLabelPosition=bottom;verticalAlign=top;align=center;html=1;shape=mxgraph.aws3.lambda_function;fillColor=#F58534;gradientColor=none;rounded=0;sketch=0;strokeColor=#FF9933;strokeWidth=1;aspect=fixed;" parent="1" vertex="1">
          <mxGeometry x="679" y="712" width="39" height="40.75" as="geometry" />
        </mxCell>
        <mxCell id="b45XmpOlP40o_1RV09xQ-7" value="" style="endArrow=classic;html=1;rounded=1;sketch=0;curved=0;" parent="1" edge="1">
          <mxGeometry width="50" height="50" relative="1" as="geometry">
            <mxPoint x="606" y="720" as="sourcePoint" />
            <mxPoint x="679" y="720" as="targetPoint" />
          </mxGeometry>
        </mxCell>
        <mxCell id="b45XmpOlP40o_1RV09xQ-10" value="&lt;span style=&quot;color: rgb(0, 0, 51); font-size: 12px; text-align: left;&quot;&gt;&lt;b&gt;Synchronous scenario&lt;/b&gt;&lt;/span&gt;" style="text;html=1;align=center;verticalAlign=middle;resizable=0;points=[];autosize=1;strokeColor=none;fillColor=none;fontSize=11;" parent="1" vertex="1">
          <mxGeometry x="560" y="779" width="140" height="20" as="geometry" />
        </mxCell>
        <mxCell id="rxK0f2ipfS20jKCTAAPW-5" value="Examples of &lt;br&gt;Lambda scenarios&amp;nbsp;" style="text;html=1;align=left;verticalAlign=middle;resizable=0;points=[];autosize=1;strokeColor=default;fillColor=none;fontSize=14;fontColor=#000033;" parent="1" vertex="1">
          <mxGeometry x="401" y="607" width="130" height="40" as="geometry" />
        </mxCell>
        <mxCell id="rxK0f2ipfS20jKCTAAPW-6" value="" style="shape=partialRectangle;whiteSpace=wrap;html=1;bottom=1;right=1;left=1;top=0;fillColor=none;routingCenterX=-0.5;rotation=-180;direction=north;" parent="1" vertex="1">
          <mxGeometry x="542.5" y="475" width="15" height="293.5" as="geometry" />
        </mxCell>
        <mxCell id="rxK0f2ipfS20jKCTAAPW-7" value="" style="line;strokeWidth=2;direction=west;html=1;" parent="1" vertex="1">
          <mxGeometry x="531" y="626" width="11" height="1" as="geometry" />
        </mxCell>
        <mxCell id="rxK0f2ipfS20jKCTAAPW-9" value="" style="rounded=0;whiteSpace=wrap;html=1;dashed=1;sketch=0;strokeColor=#FF9933;strokeWidth=1;fillColor=none;" parent="1" vertex="1">
          <mxGeometry x="559" y="700" width="172" height="110" as="geometry" />
        </mxCell>
        <mxCell id="JW2wYCluZi6iuJ0aH2-L-2" value="" style="endArrow=none;html=1;rounded=0;" edge="1" parent="1">
          <mxGeometry width="50" height="50" relative="1" as="geometry">
            <mxPoint x="540" y="440" as="sourcePoint" />
            <mxPoint x="542" y="82" as="targetPoint" />
          </mxGeometry>
        </mxCell>
        <mxCell id="JW2wYCluZi6iuJ0aH2-L-6" value="AWS CLi" style="text;html=1;align=center;verticalAlign=middle;resizable=0;points=[];autosize=1;strokeColor=none;fillColor=none;" vertex="1" parent="1">
          <mxGeometry x="20" y="580" width="60" height="20" as="geometry" />
        </mxCell>
        <mxCell id="JW2wYCluZi6iuJ0aH2-L-9" value="AWS ToolKit" style="text;html=1;align=center;verticalAlign=middle;resizable=0;points=[];autosize=1;strokeColor=none;fillColor=none;" vertex="1" parent="1">
          <mxGeometry x="220" y="590" width="80" height="20" as="geometry" />
        </mxCell>
        <mxCell id="JW2wYCluZi6iuJ0aH2-L-11" value="Configuring other AWS Services&amp;nbsp;&lt;br&gt;to invoke&amp;nbsp;&lt;span style=&quot;text-align: left;&quot;&gt;λ functions&lt;/span&gt;" style="text;html=1;align=center;verticalAlign=middle;resizable=0;points=[];autosize=1;strokeColor=none;fillColor=none;" vertex="1" parent="1">
          <mxGeometry x="55" y="633" width="190" height="30" as="geometry" />
        </mxCell>
        <mxCell id="JW2wYCluZi6iuJ0aH2-L-12" value="" style="endArrow=classic;html=1;rounded=0;" edge="1" parent="1">
          <mxGeometry width="50" height="50" relative="1" as="geometry">
            <mxPoint x="170" y="621" as="sourcePoint" />
            <mxPoint x="170" y="561" as="targetPoint" />
          </mxGeometry>
        </mxCell>
        <mxCell id="JW2wYCluZi6iuJ0aH2-L-13" value="" style="endArrow=classic;html=1;rounded=0;" edge="1" parent="1">
          <mxGeometry width="50" height="50" relative="1" as="geometry">
            <mxPoint x="75" y="579" as="sourcePoint" />
            <mxPoint x="117" y="539" as="targetPoint" />
          </mxGeometry>
        </mxCell>
        <mxCell id="JW2wYCluZi6iuJ0aH2-L-19" value="" style="line;strokeWidth=2;direction=south;html=1;" vertex="1" parent="1">
          <mxGeometry x="170" y="440" width="1" height="50" as="geometry" />
        </mxCell>
      </root>
    </mxGraphModel>
  </diagram>
</mxfile>
